# xmcd
#
# Track frame offsets:
#	150
#	15264
#	29022
#	52319
#	77656
#	88871
#	102599
#	120656
#	130390
#	139956
#	155838
#	181546
#	193138
#	208897
#
# Disc length: 2978 seconds
# Revision: 0
# Processed by: cddbd v1.5.2PL0 Copyright (c) Steve Scherf et al.
# Submitted via: dBpowerAMP V12.0
#
DISCID=ce0ba00e
DTITLE=Dan Dinnen - Last Thing On My Mind
DYEAR=2013
DGENRE=Blues
TTITLE0=Sunshine With Me
TTITLE1=I Got A Strange Feeling
TTITLE2=Don't You Do Me
TTITLE3=Everything To Lose
TTITLE4=Float My Boat
TTITLE5=Last Thing On My Mind
TTITLE6=Love Is Blind
TTITLE7=Stealin', Stealin'
TTITLE8=Too Hot To Handle
TTITLE9=God and Devil
TTITLE10=Ghost
TTITLE11=Done With Talking
TTITLE12=These Old Walls
TTITLE13=Gladstone Avenue
EXTD=
EXTT0=
EXTT1=
EXTT2=
EXTT3=
EXTT4=
EXTT5=
EXTT6=
EXTT7=
EXTT8=
EXTT9=
EXTT10=
EXTT11=
EXTT12=
EXTT13=
PLAYORDER=
